<?xml version="1.0" standalone="no"?>
<!DOCTYPE svg PUBLIC "-//W3C//DTD SVG 20010904//EN"
 "http://www.w3.org/TR/2001/REC-SVG-20010904/DTD/svg10.dtd">
<svg version="1.0" xmlns="http://www.w3.org/2000/svg"
 width="718.000000pt" height="718.000000pt" viewBox="0 0 718.000000 718.000000"
 preserveAspectRatio="xMidYMid meet">
<metadata>
Created by potrace 1.14, written by Peter Selinger 2001-2017
</metadata>
<g transform="translate(0.000000,718.000000) scale(0.100000,-0.100000)"
fill="#000000" stroke="none">
<path d="M0 3590 l0 -3590 3590 0 3590 0 0 3590 0 3590 -3590 0 -3590 0 0
-3590z m1530 3450 c0 -5 -2 -10 -4 -10 -3 0 -8 5 -11 10 -3 6 -1 10 4 10 6 0
11 -4 11 -10z m4755 -69 c7 -12 -12 -24 -25 -16 -11 7 -4 25 10 25 5 0 11 -4
15 -9z m-1795 -621 c0 -5 -5 -10 -11 -10 -5 0 -7 5 -4 10 3 6 8 10 11 10 2 0
4 -4 4 -10z m-820 -154 c0 -8 -5 -18 -11 -22 -14 -8 -33 11 -25 25 10 16 36
13 36 -3z m1805 -835 c7 -12 -12 -24 -25 -16 -11 7 -4 25 10 25 5 0 11 -4 15
-9z m-1385 -19 c0 -13 -12 -22 -22 -16 -10 6 -1 24 13 24 5 0 9 -4 9 -8z
m-1070 -21 c0 -6 -4 -13 -10 -16 -5 -3 -10 1 -10 9 0 9 5 16 10 16 6 0 10 -4
10 -9z m3260 -101 c0 -5 -4 -10 -10 -10 -5 0 -10 5 -10 10 0 6 5 10 10 10 6 0
10 -4 10 -10z m-3430 -10 c0 -5 -7 -7 -15 -4 -8 4 -15 8 -15 10 0 2 7 4 15 4
8 0 15 -4 15 -10z m520 2 c0 -13 -12 -22 -22 -16 -10 6 -1 24 13 24 5 0 9 -4
9 -8z m-544 -47 c6 -5 9 -16 6 -24 -4 -10 0 -13 16 -9 15 4 22 2 22 -8 0 -8
-6 -13 -12 -11 -8 1 -12 -7 -11 -18 1 -11 -3 -23 -9 -26 -15 -10 0 -29 23 -29
22 0 25 -17 6 -39 -12 -14 -11 -19 5 -33 17 -17 18 -17 18 2 0 24 22 26 40 5
10 -12 9 -15 -4 -15 -26 0 -50 -28 -38 -43 8 -10 2 -12 -29 -12 -21 0 -39 -2
-39 -5 1 -16 20 -32 33 -27 18 7 28 -13 20 -42 -4 -15 -1 -21 11 -21 10 0 14
5 11 11 -12 18 4 57 22 55 14 -1 17 5 15 26 -4 30 13 68 30 68 6 0 19 9 29 21
14 16 22 18 36 10 17 -10 16 -10 -4 -11 -23 0 -56 -37 -47 -52 3 -4 14 -8 25
-8 16 0 19 5 14 19 -9 30 14 36 25 7 10 -27 4 -56 -11 -56 -5 0 -9 -5 -9 -11
0 -21 34 -3 40 21 4 14 12 24 18 23 7 -2 12 2 12 8 0 6 7 9 15 5 8 -3 15 -1
15 4 0 6 7 10 15 10 8 0 15 5 15 12 0 6 3 8 7 5 10 -11 32 13 26 29 -3 9 5 18
23 24 l27 11 -22 20 c-12 12 -20 24 -16 27 3 3 10 1 17 -6 8 -8 17 -8 32 0 19
10 20 10 7 -5 -12 -15 -11 -17 7 -17 10 0 33 -16 49 -35 33 -39 50 -46 33 -15
-10 19 -6 24 14 21 5 -1 17 6 27 15 18 16 20 16 43 -5 15 -14 26 -19 31 -12 3
6 4 15 1 20 -3 5 1 12 10 15 16 6 49 -26 49 -46 0 -5 5 -7 10 -5 6 1 10 14 11
29 0 26 14 54 14 30 0 -7 5 -12 10 -12 6 0 10 10 10 23 0 19 5 23 35 24 19 1
35 -2 35 -7 0 -12 -26 -31 -33 -23 -4 3 -7 0 -7 -8 0 -21 43 -19 59 4 7 10 19
16 27 13 8 -3 14 -1 14 4 0 6 -6 10 -12 11 -7 0 -4 4 6 8 13 5 25 2 35 -8 9
-9 32 -16 51 -16 19 0 40 -4 46 -10 7 -5 21 -17 31 -26 11 -9 26 -25 34 -35
24 -32 93 -79 111 -76 11 2 18 -3 18 -11 0 -16 56 -41 70 -32 5 3 11 -8 15
-25 5 -21 13 -30 26 -30 11 0 19 -7 19 -17 0 -11 3 -14 8 -7 13 19 42 25 48 9
4 -8 11 -15 18 -15 6 0 12 -12 11 -27 0 -15 5 -28 10 -28 6 0 21 -10 35 -23
13 -12 29 -21 36 -18 6 2 35 -18 63 -45 36 -34 58 -48 70 -44 11 3 25 -3 36
-15 15 -17 16 -20 2 -20 -10 0 -13 -6 -10 -19 3 -11 11 -17 18 -15 7 3 23 1
34 -6 17 -9 21 -8 21 5 0 8 5 15 10 15 6 0 10 -7 10 -15 0 -9 7 -18 15 -21 8
-3 20 -21 27 -40 8 -22 15 -30 20 -21 7 11 68 18 68 7 0 -3 11 -18 25 -34 40
-46 29 -63 -17 -26 -17 13 -28 16 -35 9 -7 -7 -15 -6 -24 3 -8 7 -23 14 -34
16 -18 2 -18 2 -2 -8 17 -11 25 -33 10 -28 -20 7 -17 -47 3 -67 10 -9 17 -30
16 -47 -1 -35 14 -80 31 -90 7 -4 12 -11 12 -16 0 -5 8 -17 18 -27 24 -23 6
-36 -34 -25 -16 5 -31 5 -33 1 -8 -13 16 -106 30 -114 8 -5 12 -13 8 -18 -3
-6 5 -22 17 -36 l24 -25 -25 -20 -25 -20 22 -18 c17 -13 19 -20 10 -29 -9 -10
-8 -15 6 -25 9 -7 17 -18 17 -23 0 -6 7 -16 16 -24 13 -11 14 -9 9 12 -3 14 0
32 9 44 15 21 34 15 20 -7 -5 -7 -10 -24 -11 -38 -3 -25 -3 -25 13 -5 11 14
18 16 21 8 3 -7 11 -13 18 -13 17 0 27 -27 13 -36 -6 -4 -17 1 -25 11 -12 18
-13 18 -13 -1 0 -11 5 -25 12 -32 9 -9 9 -18 0 -37 -11 -24 -11 -25 9 -14 16
8 20 8 14 0 -4 -7 0 -22 8 -34 8 -12 14 -26 15 -31 0 -5 6 -12 12 -16 15 -10
32 -84 20 -88 -13 -5 -13 -52 0 -52 6 0 10 8 10 18 0 10 7 19 15 19 19 0 19
-6 -2 -29 -15 -17 -15 -21 -3 -29 13 -8 13 -10 1 -18 -7 -5 -10 -14 -7 -20 4
-6 0 -11 -11 -11 -11 0 -14 -3 -7 -8 25 -16 27 -53 4 -77 -12 -13 -20 -30 -17
-37 2 -7 0 -21 -5 -31 -6 -11 -6 -23 0 -30 5 -7 9 -46 8 -88 -2 -73 -1 -76 21
-75 12 1 23 -3 23 -9 0 -5 -10 -10 -23 -10 -12 0 -21 -5 -20 -12 2 -6 -6 -15
-17 -18 -11 -4 -18 -10 -15 -15 6 -9 -22 -59 -39 -71 -5 -4 -6 -14 -3 -23 4
-9 2 -16 -3 -16 -6 0 -10 -16 -10 -35 0 -26 -3 -33 -15 -29 -8 4 -13 10 -10
14 3 5 1 11 -3 14 -12 7 -34 -35 -35 -68 -1 -16 -7 -24 -14 -21 -15 5 -18 -21
-3 -30 17 -11 -1 -32 -28 -32 -14 0 -28 -5 -30 -11 -2 -6 -10 -8 -18 -5 -8 3
-14 0 -14 -7 0 -6 -4 -8 -10 -5 -5 3 -20 -1 -32 -11 -16 -11 -17 -15 -5 -11 9
4 17 2 17 -4 0 -6 6 -9 13 -6 9 3 13 -2 11 -16 -4 -33 -4 -33 -15 -15 -5 10
-16 15 -24 12 -17 -7 -21 -34 -5 -34 6 0 10 -7 10 -15 0 -8 -9 -15 -19 -15
-11 0 -21 -5 -23 -12 -2 -6 -18 -12 -35 -12 -18 -1 -29 3 -26 10 2 6 -6 10
-19 8 -34 -4 -34 -4 -20 -13 10 -6 11 -14 1 -37 -18 -45 -27 -68 -33 -84 -4
-8 -4 2 -2 23 3 22 1 35 -5 32 -5 -4 -9 -12 -9 -20 0 -7 -7 -16 -16 -19 -8 -3
-12 -10 -9 -16 3 -5 2 -10 -4 -10 -13 0 -31 33 -31 57 0 12 7 19 20 19 23 0
25 -7 8 -24 -9 -9 -8 -12 4 -12 9 0 20 9 23 20 3 11 11 20 17 20 5 0 8 7 4 15
-3 8 0 15 6 15 6 0 9 3 5 6 -10 11 -48 -7 -40 -19 4 -7 -1 -6 -10 2 -12 9 -17
10 -17 2 0 -7 -4 -9 -10 -6 -5 3 -10 1 -10 -5 0 -7 -8 -9 -19 -5 -13 4 -20 0
-24 -15 -6 -22 19 -54 34 -45 5 4 9 -3 9 -14 0 -10 -6 -21 -12 -23 -8 -3 -4
-9 10 -17 12 -6 22 -21 22 -33 l0 -22 -20 22 c-22 24 -56 31 -44 10 5 -10 4
-10 -6 -1 -18 16 -41 -2 -33 -25 3 -9 3 -14 -1 -10 -9 7 -39 -21 -56 -52 -6
-11 -15 -18 -21 -15 -5 4 -7 11 -4 16 4 5 2 9 -3 9 -5 0 -12 -9 -15 -19 -3
-11 -17 -22 -36 -26 -22 -5 -31 -11 -27 -21 3 -7 1 -16 -4 -19 -5 -3 -11 4
-15 14 -8 25 -44 38 -56 20 -15 -23 -10 -29 23 -29 32 0 32 0 10 -15 -15 -11
-32 -14 -58 -9 -33 6 -35 5 -26 -13 10 -18 45 -24 68 -11 23 13 45 17 39 8 -8
-13 1 -13 25 0 21 11 36 -2 24 -21 -4 -8 -9 -7 -15 2 -8 12 -11 12 -18 -1 -7
-10 -6 -17 2 -23 7 -5 1 -5 -13 -1 -42 12 -74 10 -88 -6 -8 -8 -11 -9 -7 -3 4
9 -2 13 -18 13 -25 0 -37 -16 -37 -51 0 -25 -8 -24 -37 2 -20 20 -23 20 -29 5
-3 -9 -13 -16 -20 -16 -8 0 -17 -7 -20 -15 -5 -12 -10 -13 -20 -4 -7 6 -18 8
-24 4 -6 -4 -21 -8 -33 -10 -12 -1 -26 -4 -32 -5 -20 -5 -45 0 -45 9 0 5 11
12 25 15 31 8 33 32 3 42 -15 4 -25 1 -34 -10 -7 -10 -15 -13 -18 -7 -4 5 2
14 11 20 10 5 14 13 9 18 -5 4 -11 2 -13 -4 -7 -20 -48 -15 -68 7 -10 11 -23
19 -29 18 -6 -2 -18 3 -26 10 -8 7 -28 22 -43 33 -16 12 -26 27 -24 33 3 7 -4
18 -14 25 -11 6 -17 17 -13 23 5 7 2 9 -8 5 -12 -4 -14 -1 -11 13 3 12 -3 22
-16 29 -12 7 -21 18 -21 26 0 8 -4 15 -10 15 -5 0 -10 4 -10 10 0 5 7 6 17 3
11 -4 14 -3 9 5 -4 7 -19 12 -33 12 -20 0 -24 4 -20 20 3 12 0 20 -7 20 -6 0
-20 14 -29 30 -10 17 -22 30 -27 30 -5 0 -20 11 -33 24 -13 13 -33 27 -45 30
-12 4 -22 13 -22 20 0 8 -7 19 -15 26 -8 7 -13 16 -10 20 3 4 -11 17 -30 29
-19 11 -35 27 -35 35 0 8 -10 16 -22 18 -13 2 -27 13 -33 26 -11 24 -40 30
-48 10 -4 -8 -6 -7 -6 3 -1 9 -13 20 -27 23 -21 6 -24 9 -14 21 10 12 9 15 -9
15 -13 0 -25 9 -31 24 -9 26 -30 44 -30 27 0 -21 -20 -11 -26 13 -3 14 -15 27
-29 30 -19 5 -23 11 -19 31 6 31 -13 33 -26 3 -8 -22 -9 -22 -9 5 -1 25 -21
41 -21 16 0 -14 -60 -2 -78 16 -11 10 -6 11 30 5 23 -5 45 -6 47 -4 2 2 -1 4
-7 4 -7 0 -12 8 -12 17 0 16 1 16 13 0 11 -15 16 -15 52 -2 40 14 46 28 20 54
-13 14 -35 8 -35 -10 0 -6 5 -7 10 -4 13 8 13 -5 0 -25 -7 -11 -10 -11 -10 -2
0 7 -4 11 -9 8 -12 -8 0 48 13 56 6 5 2 8 -10 8 -12 0 -22 6 -21 13 1 33 -5
44 -33 60 -31 19 -38 45 -19 64 9 9 8 18 -5 37 -9 15 -20 26 -25 26 -13 0 -32
51 -26 70 3 11 -1 20 -11 24 -13 5 -14 9 -4 21 10 13 9 15 -10 15 -17 0 -21 4
-17 20 3 11 0 20 -6 21 -8 0 -8 2 1 6 20 8 13 25 -8 18 -16 -5 -20 -2 -20 14
0 17 6 21 33 21 42 0 50 8 31 28 -14 14 -14 16 0 24 25 14 19 36 -10 36 -15 0
-29 5 -33 11 -4 6 -14 9 -22 6 -12 -4 -15 2 -13 27 2 22 -6 44 -22 66 -27 35
-54 42 -54 15 0 -14 -5 -12 -23 10 -20 26 -25 27 -52 17 -33 -13 -57 -35 -69
-65 -5 -14 -9 -16 -15 -7 -4 7 -14 12 -21 10 -7 -2 -13 7 -15 20 -2 26 14 40
25 22 6 -9 11 -7 20 10 8 15 18 20 31 17 12 -3 19 0 19 10 0 8 5 11 10 8 6 -3
10 -1 10 4 0 6 -10 11 -22 12 -21 1 -20 2 5 11 32 11 27 28 -9 28 -20 0 -24
-5 -24 -28 0 -20 -5 -28 -19 -28 -13 0 -17 5 -13 16 4 11 0 10 -16 -4 -25 -22
-28 -21 -37 17 -5 17 -3 27 4 27 6 0 11 -4 11 -10 0 -5 7 -10 15 -10 8 0 15 7
15 15 0 8 7 15 16 15 13 0 14 3 5 14 -11 13 -6 66 6 66 11 0 29 -26 26 -37
-11 -31 68 -41 103 -13 11 9 15 10 10 3 -12 -21 19 -15 40 8 15 17 16 23 6 40
-10 16 -10 23 2 35 10 10 14 29 11 64 -2 32 0 48 6 44 7 -4 9 7 7 27 -2 27 -8
34 -26 35 -12 1 -26 -6 -31 -14 -6 -11 -8 -8 -8 12 0 21 3 25 17 21 10 -3 21
-2 24 4 3 5 16 7 27 4 19 -5 20 -4 10 16 -7 11 -17 21 -24 22 -7 0 -2 5 11 11
12 6 22 16 22 22 -1 18 -26 46 -35 38 -5 -4 -5 1 -2 11 4 10 7 23 7 28 0 5 9
9 20 9 11 0 21 5 21 10 1 6 2 14 3 19 0 6 7 16 14 23 12 12 17 38 6 38 -12 0
-30 -26 -26 -38 3 -9 -3 -12 -14 -10 -13 2 -20 -4 -22 -19 -2 -13 -8 -23 -13
-23 -11 0 -12 37 -1 44 5 3 7 19 4 36 -2 16 0 30 6 30 5 0 13 12 18 28 8 30 8
30 -1 55 -5 11 -2 17 8 17 8 0 17 9 20 21 3 12 10 18 15 15 6 -3 12 1 16 9 3
8 1 17 -4 20 -16 10 -11 22 10 28 11 3 24 16 29 30 5 13 21 37 35 52 14 15 26
33 26 40 0 7 7 18 16 26 14 11 14 13 -1 21 -8 5 -13 14 -9 19 3 5 0 17 -8 26
-11 14 -10 15 8 9 15 -5 24 -2 28 9 3 9 10 13 16 10 19 -11 10 12 -9 26 -17
12 -18 18 -8 49 9 26 20 37 45 45 17 5 32 15 32 23 0 9 6 12 18 7 19 -7 22 -8
40 -6 29 3 9 20 -23 19 -20 -1 -41 4 -47 10 -18 18 -28 14 -28 -8 0 -17 -4
-19 -27 -14 -35 9 -35 8 -27 28 5 12 10 14 20 5 14 -12 38 -3 29 11 -3 5 0 12
6 16 6 3 15 1 19 -5 4 -7 16 -14 26 -16 10 -2 19 -4 19 -5 0 -1 8 -3 18 -5 15
-3 18 0 17 23 -1 4 -9 6 -19 4 -10 -1 -24 4 -31 13 -10 12 -10 15 0 15 10 0
10 3 0 15 -10 12 -9 16 4 21 9 3 13 10 10 15 -3 5 2 9 11 9 22 0 15 32 -10 45
-26 14 -31 37 -8 33 10 -2 23 -7 29 -13z m854 -31 c0 -3 -5 -2 -11 2 -6 3 -15
1 -19 -6 -11 -17 -30 -3 -30 21 0 18 2 19 30 4 17 -9 30 -18 30 -21z m-940 -5
c-12 -21 -31 -26 -27 -7 3 18 21 37 30 31 4 -2 2 -13 -3 -24z m27 -1 c-3 -8
-6 -5 -6 6 -1 11 2 17 5 13 3 -3 4 -12 1 -19z m163 18 c0 -3 -4 -8 -10 -11 -5
-3 -10 -1 -10 4 0 6 5 11 10 11 6 0 10 -2 10 -4z m40 0 c0 -3 -4 -8 -10 -11
-5 -3 -10 -1 -10 4 0 6 5 11 10 11 6 0 10 -2 10 -4z m305 -26 c-3 -5 -10 -10
-16 -10 -5 0 -9 5 -9 10 0 6 7 10 16 10 8 0 12 -4 9 -10z m-366 -27 c0 -25 -1
-25 -8 -8 -5 11 -7 23 -4 28 8 14 13 7 12 -20z m584 7 c6 0 2 -6 -8 -14 -22
-16 -35 -12 -35 11 0 10 6 13 16 9 9 -3 21 -6 27 -6z m-473 -25 c0 -12 -29 -3
-34 10 -4 13 -2 14 14 5 11 -6 20 -13 20 -15z m-266 -10 c-4 -8 -10 -12 -15
-9 -11 6 -2 24 11 24 5 0 7 -7 4 -15z m-36 -39 c-2 -10 -8 -13 -16 -7 -7 4
-10 15 -6 25 8 21 28 6 22 -18z m207 6 c-3 -3 -11 0 -18 7 -9 10 -8 11 6 5 10
-3 15 -9 12 -12z m225 8 c0 -5 -4 -10 -10 -10 -5 0 -10 5 -10 10 0 6 5 10 10
10 6 0 10 -4 10 -10z m3 -36 c7 -8 -16 -33 -25 -28 -9 6 1 34 11 34 4 0 10 -3
14 -6z m-48 -34 c-3 -5 -12 -7 -20 -3 -21 7 -19 13 6 13 11 0 18 -4 14 -10z
m-527 -105 c-3 -3 -9 2 -12 12 -6 14 -5 15 5 6 7 -7 10 -15 7 -18z m42 -32 c0
-18 -17 -16 -24 3 -8 22 4 40 15 23 5 -8 9 -20 9 -26z m38 8 c-1 -20 -5 -28
-14 -24 -17 6 -17 9 -4 34 15 26 19 24 18 -10z m-22 -44 c8 3 14 0 14 -5 0
-16 -18 -24 -25 -12 -4 6 -11 8 -16 5 -5 -4 -9 2 -9 11 0 13 3 15 11 7 6 -6
18 -9 25 -6z m-106 -42 c0 -8 -7 -15 -15 -15 -16 0 -20 12 -8 23 11 12 23 8
23 -8z m50 5 c0 -5 -9 -14 -20 -20 -16 -8 -20 -8 -20 4 0 13 13 23 33 25 4 1
7 -3 7 -9z m1840 -98 c0 -12 -3 -12 -15 -2 -8 7 -15 13 -15 15 0 1 7 2 15 2 8
0 15 -7 15 -15z m-2023 -18 c-3 -3 -12 -4 -19 -1 -8 3 -5 6 6 6 11 1 17 -2 13
-5z m2144 -67 c-13 -13 -26 -3 -16 12 3 6 11 8 17 5 6 -4 6 -10 -1 -17z m225
-134 c-8 -8 -36 10 -36 25 0 13 3 12 20 -3 11 -10 18 -20 16 -22z m-3821 -3
c3 -5 -1 -10 -9 -10 -9 0 -16 5 -16 10 0 6 4 10 9 10 6 0 13 -4 16 -10z m3835
-62 c0 -6 6 -8 13 -5 14 5 36 -21 37 -44 0 -9 11 -28 25 -43 16 -17 19 -26 10
-26 -16 0 -65 46 -65 60 0 6 -4 10 -10 10 -5 0 -10 6 -10 14 0 8 -7 16 -15 20
-8 3 -15 9 -15 14 0 5 7 9 15 9 8 0 15 -4 15 -9z m116 -28 c8 0 14 -5 14 -11
0 -7 12 -23 26 -36 16 -14 24 -31 21 -42 -3 -12 5 -21 24 -30 31 -14 48 -49
29 -61 -9 -6 -9 -12 1 -27 7 -13 9 -28 4 -39 -8 -18 -8 -18 -12 -1 -3 9 -8 15
-13 12 -5 -3 -13 14 -17 37 -7 34 -13 44 -31 46 -15 2 -22 10 -21 20 2 9 0 34
-4 55 -6 27 -13 37 -27 37 -15 0 -18 7 -18 33 1 17 3 26 5 20 3 -7 11 -13 19
-13z m-3856 -41 c0 -5 -7 -9 -15 -9 -15 0 -20 12 -9 23 8 8 24 -1 24 -14z
m1120 -159 c0 -5 -2 -10 -4 -10 -3 0 -8 5 -11 10 -3 6 -1 10 4 10 6 0 11 -4
11 -10z m95 -50 c3 -5 1 -10 -4 -10 -6 0 -11 5 -11 10 0 6 2 10 4 10 3 0 8 -4
11 -10z m2765 -40 c14 -10 21 -22 17 -26 -4 -4 -18 5 -31 19 -29 31 -22 35 14
7z m40 -41 c0 -11 -4 -17 -10 -14 -26 16 -6 -13 23 -32 17 -13 27 -23 20 -23
-6 0 -9 -8 -6 -19 5 -18 -20 -36 -37 -26 -14 9 -22 106 -9 121 16 19 19 18 19
-7z m-2708 -11 c-7 -7 -12 -8 -12 -2 0 14 12 26 19 19 2 -3 -1 -11 -7 -17z
m-237 -68 c-3 -5 -10 -10 -16 -10 -5 0 -9 5 -9 10 0 6 7 10 16 10 8 0 12 -4 9
-10z m177 -22 c-9 -9 -12 -7 -12 12 0 19 3 21 12 12 9 -9 9 -15 0 -24z m2643
2 c-3 -5 -10 -10 -16 -10 -5 0 -9 5 -9 10 0 6 7 10 16 10 8 0 12 -4 9 -10z
m-165 -41 c0 -5 -4 -7 -10 -4 -5 3 -10 1 -10 -6 0 -7 -3 -10 -6 -6 -8 7 4 27
17 27 5 0 9 -5 9 -11z m328 -6 c-6 -7 -7 -13 -4 -13 4 0 4 -5 0 -11 -4 -8 -9
-7 -15 2 -7 11 -9 11 -9 -2 0 -9 7 -22 15 -29 20 -17 19 -27 -5 -33 -11 -3
-18 -2 -15 3 3 4 -2 13 -11 20 -12 11 -12 15 -2 22 10 7 9 11 -4 19 -31 18
-20 34 22 34 31 1 37 -2 28 -12z m-3668 -23 c0 -5 -4 -10 -10 -10 -5 0 -10 5
-10 10 0 6 5 10 10 10 6 0 10 -4 10 -10z m784 -115 c-4 -8 -10 -15 -15 -15 -4
0 -6 7 -3 15 4 8 10 15 15 15 4 0 6 -7 3 -15z m64 -129 c12 -4 22 -10 23 -14
0 -4 2 -16 4 -26 4 -22 -11 -56 -24 -56 -5 0 -12 11 -15 25 -4 15 -11 23 -17
19 -8 -4 -8 -1 -1 13 9 15 7 23 -9 36 -10 9 -19 22 -19 28 0 8 6 7 18 -3 9 -9
27 -19 40 -22z m205 -98 c3 -10 8 -10 21 2 16 13 20 12 31 -3 6 -9 15 -14 18
-10 4 3 7 -1 7 -10 0 -13 -6 -14 -36 -6 -38 11 -64 0 -64 -27 0 -8 -6 -14 -12
-14 -9 0 -8 -4 2 -10 8 -5 11 -10 7 -10 -5 0 -5 -5 -1 -11 4 -8 9 -8 13 -1 4
7 12 7 20 3 11 -7 9 -11 -7 -20 -16 -8 -21 -7 -26 4 -3 8 -12 15 -21 15 -21 0
-19 22 5 53 11 14 20 32 20 41 0 19 17 21 23 4z m-48 -18 c3 -5 1 -10 -4 -10
-6 0 -11 5 -11 10 0 6 2 10 4 10 3 0 8 -4 11 -10z m-160 -9 c3 -5 1 -12 -5
-16 -5 -3 -10 1 -10 9 0 18 6 21 15 7z m62 -14 c-2 -6 6 -20 19 -30 21 -16 25
-16 30 -3 3 9 11 16 16 16 7 0 6 -5 -1 -14 -8 -9 -8 -21 -2 -39 8 -21 7 -25
-4 -20 -8 3 -15 9 -15 15 0 14 -30 42 -48 44 -23 4 -40 24 -19 24 9 0 17 5 17
10 0 6 3 10 6 10 3 0 4 -6 1 -13z m2683 -61 c0 -2 -7 -6 -15 -10 -8 -3 -15 -1
-15 4 0 6 7 10 15 10 8 0 15 -2 15 -4z m-2494 -31 c-25 -19 -37 -19 -30 0 4 8
16 15 28 15 21 -1 21 -1 2 -15z m2611 -11 c-3 -3 -12 -4 -19 -1 -8 3 -5 6 6 6
11 1 17 -2 13 -5z m-2733 -10 c18 -7 12 -24 -8 -24 -7 0 -13 7 -13 15 0 17 0
17 21 9z m26 -69 c0 -8 -7 -15 -15 -15 -16 0 -20 12 -8 23 11 12 23 8 23 -8z
m40 -79 c0 -11 -19 -15 -25 -6 -3 5 1 10 9 10 9 0 16 -2 16 -4z m75 -6 c3 -5
1 -10 -4 -10 -6 0 -11 5 -11 10 0 6 2 10 4 10 3 0 8 -4 11 -10z m65 0 c0 -5
-4 -10 -10 -10 -5 0 -10 5 -10 10 0 6 5 10 10 10 6 0 10 -4 10 -10z m-100 -40
c0 -5 -4 -10 -10 -10 -5 0 -10 5 -10 10 0 6 5 10 10 10 6 0 10 -4 10 -10z
m110 -24 c0 -3 -4 -8 -10 -11 -5 -3 -10 -1 -10 4 0 6 5 11 10 11 6 0 10 -2 10
-4z m20 -46 c-20 -12 -32 -2 -17 15 8 8 16 10 22 4 6 -7 5 -13 -5 -19z m-29
-50 c22 0 29 -19 18 -49 -8 -19 -12 -21 -24 -11 -8 7 -15 18 -15 24 0 6 5 4
11 -4 9 -13 10 -13 6 0 -2 9 -15 15 -30 15 -31 -1 -31 -1 -15 25 8 13 16 16
22 10 6 -6 18 -10 27 -10z m2339 -44 c0 -3 -4 -8 -10 -11 -5 -3 -10 -1 -10 4
0 6 5 11 10 11 6 0 10 -2 10 -4z m87 -100 c-6 -14 -67 -9 -67 5 0 5 15 18 33
29 l32 20 3 -21 c2 -11 1 -26 -1 -33z m-2481 -15 c-4 -5 0 -12 6 -14 7 -3 3
-6 -9 -6 -23 -1 -30 9 -16 22 10 10 25 8 19 -2z m2289 -11 c3 -5 1 -10 -4 -10
-6 0 -11 5 -11 10 0 6 2 10 4 10 3 0 8 -4 11 -10z m-4555 -24 c0 -3 -4 -8 -10
-11 -5 -3 -10 -1 -10 4 0 6 5 11 10 11 6 0 10 -2 10 -4z m6194 -52 c8 -21 -1
-34 -24 -34 -10 0 -21 4 -24 9 -10 16 5 41 24 41 10 0 21 -7 24 -16z m-4726
-205 c-2 -6 -8 -10 -13 -10 -5 0 -11 4 -13 10 -2 6 4 11 13 11 9 0 15 -5 13
-11z m2917 -29 c3 -5 1 -10 -4 -10 -6 0 -11 5 -11 10 0 6 2 10 4 10 3 0 8 -4
11 -10z m-3873 -554 c10 -14 0 -26 -22 -26 -23 0 -32 13 -24 33 6 16 33 12 46
-7z m3139 11 c-1 -12 -15 -9 -19 4 -3 6 1 10 8 8 6 -3 11 -8 11 -12z m-164
-32 c-6 -17 -37 -18 -37 -1 0 9 8 14 20 13 11 -1 19 -6 17 -12z m3378 -185 c3
-5 1 -10 -4 -10 -6 0 -11 5 -11 10 0 6 2 10 4 10 3 0 8 -4 11 -10z m-6570 -80
c3 -5 1 -10 -4 -10 -6 0 -11 5 -11 10 0 6 2 10 4 10 3 0 8 -4 11 -10z m5755
-130 c0 -5 -5 -10 -11 -10 -5 0 -7 5 -4 10 3 6 8 10 11 10 2 0 4 -4 4 -10z
m-1290 -45 c0 -8 -4 -15 -9 -15 -13 0 -22 16 -14 24 11 11 23 6 23 -9z m-3360
-16 c0 -5 -7 -9 -15 -9 -15 0 -20 12 -9 23 8 8 24 -1 24 -14z m3860 -119 c0
-5 -7 -10 -15 -10 -8 0 -15 5 -15 10 0 6 7 10 15 10 8 0 15 -4 15 -10z m520
-75 c0 -8 -4 -15 -10 -15 -5 0 -10 7 -10 15 0 8 5 15 10 15 6 0 10 -7 10 -15z
m-3330 -130 c0 -8 -6 -15 -14 -15 -17 0 -28 14 -19 24 12 12 33 6 33 -9z
m-1210 -9 c0 -3 -4 -8 -10 -11 -5 -3 -10 -1 -10 4 0 6 5 11 10 11 6 0 10 -2
10 -4z m-810 -51 c0 -8 -7 -15 -15 -15 -8 0 -15 7 -15 15 0 8 7 15 15 15 8 0
15 -7 15 -15z m5540 -45 c26 -22 42 -25 71 -10 25 14 24 -2 -1 -25 -19 -18
-20 -19 -3 -29 16 -9 16 -10 -2 -16 -18 -6 -18 -7 3 -26 30 -25 28 -36 -5 -23
-30 11 -77 4 -68 -11 3 -6 0 -10 -8 -10 -8 0 -18 7 -21 16 -4 11 -15 14 -40
11 -19 -2 -39 -8 -45 -11 -21 -13 -11 5 17 29 22 20 24 24 10 25 -23 0 -24 20
-1 20 13 0 12 5 -8 26 l-24 25 30 -5 c38 -7 65 1 65 20 0 18 3 18 30 -6z
m-6035 -20 c3 -5 1 -10 -4 -10 -6 0 -11 5 -11 10 0 6 2 10 4 10 3 0 8 -4 11
-10z m510 -170 c3 -5 1 -10 -4 -10 -6 0 -11 5 -11 10 0 6 2 10 4 10 3 0 8 -4
11 -10z m-341 -41 c-3 -5 -10 -7 -15 -3 -5 3 -7 10 -3 15 3 5 10 7 15 3 5 -3
7 -10 3 -15z m2320 -24 c6 -18 -16 -30 -39 -21 -20 7 -8 36 15 36 10 0 21 -7
24 -15z m-890 -26 c-3 -5 -10 -7 -15 -3 -5 3 -7 10 -3 15 3 5 10 7 15 3 5 -3
7 -10 3 -15z m5281 -49 c3 -5 -1 -10 -10 -10 -9 0 -13 5 -10 10 3 6 8 10 10
10 2 0 7 -4 10 -10z m-6705 -61 c0 -5 -4 -9 -10 -9 -5 0 -10 7 -10 16 0 8 5
12 10 9 6 -3 10 -10 10 -16z m4930 -314 c0 -8 -4 -15 -9 -15 -13 0 -22 16 -14
24 11 11 23 6 23 -9z m-2340 -165 c0 -5 -4 -10 -10 -10 -5 0 -10 5 -10 10 0 6
5 10 10 10 6 0 10 -4 10 -10z m4150 -80 c0 -5 -4 -10 -10 -10 -5 0 -10 5 -10
10 0 6 5 10 10 10 6 0 10 -4 10 -10z m-3540 -130 c0 -5 -4 -10 -10 -10 -5 0
-10 5 -10 10 0 6 5 10 10 10 6 0 10 -4 10 -10z"/>
<path d="M3778 5028 c9 -9 15 -9 24 0 9 9 7 12 -12 12 -19 0 -21 -3 -12 -12z"/>
<path d="M3719 4971 c6 -10 7 -22 3 -26 -4 -5 -1 -5 6 -1 17 10 15 33 -3 40
-12 4 -13 2 -6 -13z"/>
<path d="M3780 4978 c0 -9 5 -20 10 -23 13 -8 13 5 0 25 -8 13 -10 13 -10 -2z"/>
<path d="M3246 4972 c-2 -4 -1 -14 4 -22 7 -11 9 -9 7 8 -1 24 -3 26 -11 14z"/>
<path d="M2830 4931 c0 -5 7 -11 15 -15 9 -3 15 0 15 9 0 8 -7 15 -15 15 -8 0
-15 -4 -15 -9z"/>
<path d="M2961 4917 c-16 -20 13 -31 40 -17 23 13 25 25 2 16 -9 -4 -19 -2
-23 4 -5 7 -11 6 -19 -3z"/>
<path d="M2703 4773 c-7 -3 -13 -11 -13 -20 0 -12 2 -12 16 2 18 17 16 25 -3
18z"/>
<path d="M2811 4764 c0 -11 3 -14 6 -6 3 7 2 16 -1 19 -3 4 -6 -2 -5 -13z"/>
<path d="M3200 4770 c0 -5 7 -10 16 -10 8 0 12 5 9 10 -3 6 -10 10 -16 10 -5
0 -9 -4 -9 -10z"/>
<path d="M3280 4765 c0 -8 -6 -12 -14 -9 -8 3 -16 -4 -19 -18 -8 -28 3 -40 23
-28 10 7 11 10 3 10 -7 0 -13 5 -13 10 0 15 36 12 50 -5 9 -11 17 -12 31 -4
25 13 24 29 -1 22 -11 -3 -20 0 -20 6 0 5 -7 8 -15 5 -11 -5 -13 -2 -9 10 3 9
1 16 -5 16 -6 0 -11 -7 -11 -15z"/>
<path d="M2780 4719 c0 -5 5 -9 11 -9 6 0 8 -9 3 -22 -8 -26 -2 -23 14 8 10
18 8 23 -8 27 -11 3 -20 1 -20 -4z"/>
<path d="M4410 4522 c0 -4 9 -8 19 -8 11 0 17 4 15 8 -3 4 -12 8 -20 8 -8 0
-14 -4 -14 -8z"/>
<path d="M4508 4493 c7 -3 16 -2 19 1 4 3 -2 6 -13 5 -11 0 -14 -3 -6 -6z"/>
<path d="M2546 4445 c4 -8 10 -12 15 -9 11 6 2 24 -11 24 -5 0 -7 -7 -4 -15z"/>
<path d="M4501 4434 c0 -11 3 -14 6 -6 3 7 2 16 -1 19 -3 4 -6 -2 -5 -13z"/>
<path d="M2530 4381 c0 -6 4 -13 10 -16 6 -3 7 1 4 9 -7 18 -14 21 -14 7z"/>
<path d="M4487 4373 c-4 -3 -7 -11 -7 -17 0 -6 5 -5 12 2 6 6 9 14 7 17 -3 3
-9 2 -12 -2z"/>
<path d="M4667 3959 c7 -7 15 -10 18 -7 3 3 -2 9 -12 12 -14 6 -15 5 -6 -5z"/>
<path d="M3305 3880 c3 -5 8 -10 11 -10 2 0 4 5 4 10 0 6 -5 10 -11 10 -5 0
-7 -4 -4 -10z"/>
<path d="M3315 3841 c-9 -16 3 -31 26 -31 14 0 19 6 17 17 -4 20 -33 29 -43
14z"/>
<path d="M3341 3781 c-6 -10 -8 -21 -5 -24 3 -3 -1 -16 -10 -29 -9 -12 -16
-32 -16 -45 0 -12 -6 -25 -12 -29 -17 -11 31 -23 52 -14 74 33 75 34 71 80 -5
65 -57 105 -80 61z m19 -66 c0 -8 -4 -15 -10 -15 -5 0 -10 7 -10 15 0 8 5 15
10 15 6 0 10 -7 10 -15z m20 -24 c0 -5 -7 -11 -15 -15 -15 -5 -20 5 -8 17 9
10 23 9 23 -2z"/>
<path d="M4070 3751 c0 -6 5 -13 10 -16 6 -4 9 -12 8 -18 -4 -18 23 -77 35
-77 17 0 1 92 -19 107 -21 15 -34 17 -34 4z"/>
<path d="M4015 3730 c-3 -6 -12 -10 -18 -9 -33 4 -39 -2 -35 -31 2 -16 0 -32
-6 -34 -6 -2 -3 -5 7 -5 10 -1 16 -5 13 -10 -3 -5 4 -12 17 -15 32 -10 117
-12 117 -3 0 4 -4 7 -8 7 -5 0 -9 6 -10 13 0 6 -7 30 -15 52 -15 40 -47 59
-62 35z"/>
<path d="M4142 3728 c6 -18 28 -21 28 -4 0 9 -7 16 -16 16 -9 0 -14 -5 -12
-12z"/>
<path d="M3600 3666 c-8 -10 -8 -21 -2 -32 8 -14 10 -11 14 15 5 36 5 36 -12
17z"/>
<path d="M3456 3648 c-5 -10 -14 -14 -23 -11 -11 4 -14 2 -9 -5 4 -8 2 -10 -7
-6 -9 3 -16 -3 -20 -15 -6 -23 3 -27 20 -10 8 8 14 1 22 -27 6 -22 11 -46 11
-54 1 -11 4 -10 15 4 18 24 19 53 3 59 -9 4 -10 8 -3 14 6 4 8 21 4 38 -5 24
-7 26 -13 13z"/>
<path d="M3494 3619 c3 -19 7 -40 8 -46 2 -16 15 -17 24 -1 4 6 2 14 -4 16 -7
2 -12 14 -12 27 0 13 -5 27 -11 31 -8 5 -10 -3 -5 -27z"/>
<path d="M3870 3618 c0 -9 5 -20 10 -23 13 -8 13 5 0 25 -8 13 -10 13 -10 -2z"/>
<path d="M3912 3600 c-15 -25 -15 -30 2 -30 8 0 14 10 14 25 0 30 0 30 -16 5z"/>
<path d="M3550 3603 c0 -5 7 -18 15 -29 12 -16 14 -16 15 -3 0 9 -7 22 -15 29
-8 7 -15 8 -15 3z"/>
<path d="M4845 3570 c3 -5 8 -10 11 -10 2 0 4 5 4 10 0 6 -5 10 -11 10 -5 0
-7 -4 -4 -10z"/>
<path d="M3360 3560 c0 -5 4 -10 8 -10 5 0 14 -10 20 -22 10 -22 11 -22 11 -3
1 11 -8 26 -19 33 -12 7 -20 8 -20 2z"/>
<path d="M3489 3522 c-35 -36 -52 -69 -39 -77 5 -3 10 1 10 9 0 9 2 16 4 16 2
0 13 3 23 7 17 7 17 6 0 -11 -10 -10 -15 -21 -11 -25 4 -3 9 0 11 7 3 6 11 12
19 12 9 0 12 5 9 10 -3 6 -1 10 5 10 7 0 8 6 0 19 -14 26 -13 31 6 31 8 0 12
5 9 10 -9 15 -17 11 -46 -18z"/>
<path d="M4186 3524 c-3 -7 9 -19 26 -27 30 -15 58 -13 58 3 0 24 -76 46 -84
24z"/>
<path d="M3575 3520 c-4 -6 -11 -8 -16 -5 -10 7 -1 -24 13 -42 11 -14 -7 -27
-28 -19 -24 9 -11 -18 14 -29 27 -12 29 -25 4 -25 -17 0 -72 -53 -72 -70 0 -4
6 -13 14 -19 8 -7 18 -26 22 -44 l6 -31 18 22 c10 12 24 22 30 22 10 0 10 3 0
15 -7 8 -18 15 -25 15 -22 0 -26 30 -7 55 17 25 32 32 32 16 0 -5 -8 -12 -17
-16 -17 -7 -16 -8 2 -15 18 -8 18 -9 2 -9 -10 -1 -16 -5 -13 -10 3 -5 14 -7
25 -4 16 4 18 14 17 74 -1 48 -5 70 -15 74 -11 4 -11 9 3 24 11 12 13 21 7 25
-5 4 -12 2 -16 -4z"/>
<path d="M4154 3486 c-3 -8 -13 -12 -25 -9 -26 7 -24 -1 13 -42 23 -27 33 -33
39 -23 7 10 9 10 9 1 0 -7 7 -13 15 -13 17 0 19 -9 6 -29 -6 -10 -4 -25 7 -45
l16 -31 6 30 c6 30 6 30 20 8 13 -21 15 -21 42 -5 28 16 45 42 28 42 -6 0 -9
6 -7 13 1 7 -10 13 -26 15 -19 2 -27 8 -23 17 2 7 -4 15 -15 18 -13 3 -19 0
-19 -10 0 -13 -3 -13 -15 -3 -8 7 -15 21 -15 32 0 14 -5 18 -15 14 -10 -4 -15
1 -15 14 0 23 -18 27 -26 6z"/>
<path d="M3626 3443 c-3 -10 -5 -37 -4 -60 1 -34 4 -39 14 -28 8 8 11 29 9 55
-5 50 -11 59 -19 33z"/>
<path d="M4852 3433 c4 -21 33 -25 33 -3 0 8 -8 16 -18 18 -14 3 -18 -1 -15
-15z"/>
<path d="M3679 3415 c-1 -14 -2 -39 -3 -57 0 -17 -7 -33 -13 -35 -17 -6 -16
-23 1 -23 7 0 19 15 27 33 16 39 29 49 46 35 9 -7 13 -7 13 0 0 6 -9 14 -21
17 -11 4 -18 9 -15 12 7 8 -13 43 -24 43 -6 0 -11 -11 -11 -25z"/>
<path d="M4027 3416 c-4 -10 1 -12 14 -9 23 6 24 9 5 16 -8 3 -17 0 -19 -7z"/>
<path d="M4058 3393 c7 -3 16 -2 19 1 4 3 -2 6 -13 5 -11 0 -14 -3 -6 -6z"/>
<path d="M3995 3363 c4 -10 8 -24 8 -30 0 -7 7 -13 14 -13 8 0 11 5 8 10 -3 6
1 13 10 16 13 5 11 9 -11 20 -34 18 -38 18 -29 -3z"/>
<path d="M4326 3316 c3 -9 11 -16 16 -16 13 0 5 23 -10 28 -7 2 -10 -2 -6 -12z"/>
<path d="M4380 3280 c0 -6 7 -10 15 -10 8 0 15 2 15 4 0 2 -7 6 -15 10 -8 3
-15 1 -15 -4z"/>
<path d="M4330 3268 c1 -15 24 -48 34 -48 15 0 4 36 -14 48 -16 10 -20 10 -20
0z"/>
<path d="M4715 3270 c-3 -5 1 -10 9 -10 9 0 16 5 16 10 0 6 -4 10 -9 10 -6 0
-13 -4 -16 -10z"/>
<path d="M4280 3260 c0 -13 18 -22 24 -11 3 5 -1 11 -9 15 -8 3 -15 1 -15 -4z"/>
<path d="M4553 3223 c-8 -3 -11 -14 -7 -29 4 -17 1 -26 -10 -30 -9 -3 -16 -15
-16 -25 0 -10 -5 -19 -12 -19 -9 0 -9 -3 0 -12 16 -16 15 -28 -3 -28 -8 0 -15
7 -15 15 0 8 -5 15 -11 15 -5 0 -7 -5 -3 -12 4 -6 8 -21 10 -32 1 -12 6 -29
10 -40 6 -15 4 -17 -14 -12 -17 6 -19 3 -15 -14 4 -15 2 -19 -10 -15 -8 4 -21
-1 -30 -9 -9 -9 -20 -16 -26 -16 -6 0 -11 -9 -11 -20 0 -11 -4 -20 -10 -20 -5
0 -10 7 -10 16 0 9 -6 14 -12 12 -14 -5 -54 40 -44 49 3 4 12 1 18 -5 8 -8 15
-8 24 -1 8 7 14 7 19 -1 3 -5 13 -10 21 -10 12 0 12 4 4 20 -7 14 -7 20 0 20
5 0 19 9 30 20 11 11 16 20 10 20 -5 0 -12 11 -16 25 -7 27 -57 60 -78 52 -7
-3 -21 -21 -30 -41 -9 -20 -22 -36 -27 -36 -6 0 -8 -8 -5 -17 3 -10 2 -23 -2
-29 -8 -12 -46 -28 -39 -16 3 4 -11 8 -30 9 -27 1 -36 -3 -40 -18 -5 -18 -7
-18 -29 6 -13 14 -26 25 -29 25 -3 0 -15 9 -27 20 -12 11 -17 20 -10 20 6 0 9
7 6 15 -4 8 -10 15 -15 15 -4 0 -6 -6 -3 -14 3 -8 -3 -19 -15 -26 -21 -11 -30
-50 -11 -50 5 0 14 -9 21 -21 10 -19 8 -20 -10 -14 -12 3 -21 3 -20 -2 5 -27
-2 -31 -28 -18 -17 9 -31 11 -38 5 -12 -10 -35 6 -35 25 0 6 -9 11 -20 11 -11
0 -20 -7 -20 -14 0 -10 -7 -12 -27 -7 -27 6 -27 6 -9 -14 11 -12 31 -21 45
-21 20 0 23 -2 11 -10 -13 -8 -12 -13 4 -41 l18 -31 -21 12 c-12 6 -26 8 -31
5 -5 -3 -11 -1 -15 5 -3 5 -2 10 3 10 12 0 8 38 -6 52 -8 8 -20 5 -46 -10 -31
-18 -36 -19 -47 -6 -10 13 -10 17 2 25 8 5 22 9 31 9 23 0 34 20 17 32 -11 8
-10 9 3 5 9 -4 19 1 22 10 4 9 14 13 26 10 11 -3 20 -1 20 4 0 5 -7 9 -15 9
-20 0 -19 10 3 26 14 11 14 15 4 22 -11 8 -11 10 2 15 9 4 16 15 16 26 0 10 9
21 19 24 12 3 18 12 16 23 -3 23 -24 20 -43 -7 -17 -24 -32 -25 -32 -1 0 11
-8 26 -19 36 -16 15 -19 15 -31 1 -10 -12 -10 -15 4 -15 22 0 46 -41 39 -68
-6 -25 -23 -30 -23 -7 0 16 -15 21 -23 8 -2 -5 -2 -2 0 6 2 7 -8 22 -22 33
-14 11 -25 28 -25 39 0 17 -3 18 -20 7 -15 -9 -19 -20 -15 -35 4 -16 1 -21 -9
-17 -7 3 -20 -2 -29 -10 -8 -8 -18 -12 -22 -8 -4 4 -3 -3 4 -15 7 -14 8 -29 2
-45 -6 -13 -11 -17 -12 -10 -1 6 -3 17 -4 22 -1 6 -3 13 -4 17 0 4 -6 2 -13
-5 -7 -7 -16 -12 -21 -12 -5 0 -1 7 7 16 18 18 20 30 6 39 -6 3 -7 -1 -4 -9 6
-15 -11 -22 -39 -17 -4 1 -14 -5 -22 -13 -12 -12 -11 -15 11 -20 21 -6 24 -9
14 -21 -7 -8 -10 -21 -7 -29 3 -7 1 -18 -5 -24 -12 -12 9 -11 28 1 19 11 21
-1 12 -59 -5 -31 -7 -58 -5 -60 6 -6 62 24 62 33 0 5 4 14 9 22 6 10 5 12 -2
7 -7 -4 -12 -2 -12 4 0 6 7 13 15 16 19 8 19 33 0 54 -14 15 -13 17 5 15 31
-2 49 -23 30 -35 -10 -7 -11 -10 -2 -10 6 0 12 -9 12 -19 0 -30 11 -51 26 -51
7 0 11 -6 8 -14 -3 -7 6 -23 20 -34 14 -11 26 -28 25 -38 0 -11 -3 -14 -6 -6
-6 15 -23 16 -23 1 0 -17 28 -41 32 -27 3 7 9 8 19 3 8 -5 22 -8 32 -7 11 2
17 -3 17 -17 0 -12 6 -21 14 -21 9 0 12 -8 8 -25 -3 -18 1 -30 13 -39 14 -10
15 -15 5 -21 -9 -5 -20 0 -32 15 l-18 22 0 -30 c0 -17 -6 -32 -15 -36 -8 -3
-12 -12 -9 -21 4 -9 1 -15 -9 -15 -8 0 -17 -7 -21 -15 -5 -14 5 -20 27 -16 5
1 11 -8 14 -19 3 -11 9 -20 14 -20 5 0 9 -9 9 -20 0 -11 -7 -20 -15 -20 -9 0
-15 9 -15 21 0 15 -4 19 -16 15 -9 -3 -20 -6 -26 -6 -6 0 -5 -7 3 -17 8 -10 9
-14 2 -10 -6 4 -14 3 -18 -3 -4 -6 -10 -8 -15 -5 -5 3 -12 0 -15 -6 -4 -6 2
-13 14 -16 12 -3 21 -10 21 -15 0 -5 6 -8 12 -6 7 3 13 11 13 19 0 22 20 22
23 -1 4 -22 17 -26 27 -10 5 8 11 7 21 -1 12 -10 13 -8 8 7 -5 18 -5 18 9 2
15 -19 37 -24 37 -10 0 5 11 14 24 20 19 8 26 8 30 -1 3 -8 10 -6 20 7 10 12
21 16 33 12 17 -7 17 -8 -1 -22 -11 -8 -15 -14 -9 -14 6 0 16 7 23 15 7 9 21
13 31 10 13 -4 19 -1 19 9 0 9 7 16 15 16 8 0 15 -7 15 -15 0 -8 5 -15 11 -15
5 0 7 5 4 10 -3 6 1 10 10 10 10 0 15 7 13 18 -2 10 -11 16 -22 14 -15 -3 -18
2 -14 27 2 17 0 32 -5 34 -5 1 -2 9 7 16 14 12 16 10 16 -12 0 -28 16 -45 22
-25 3 8 12 4 25 -9 22 -22 21 -35 -3 -26 -8 3 -14 0 -14 -6 0 -6 7 -11 15 -11
7 0 18 -8 24 -17 13 -24 24 -10 23 27 -1 37 13 47 29 19 11 -21 12 -21 48 19
30 34 41 40 64 35 15 -3 30 -9 33 -14 3 -5 15 -9 27 -9 13 0 17 3 11 8 -18 11
-22 74 -5 80 8 3 11 0 7 -7 -11 -17 7 -42 24 -31 11 7 11 11 1 24 -11 14 -11
16 4 16 14 0 16 6 13 30 -3 17 0 30 5 30 5 0 6 8 2 18 -4 9 -9 23 -12 30 -3 6
2 12 11 12 9 0 16 -6 16 -12 0 -9 3 -9 9 1 8 12 12 12 25 2 22 -19 38 -4 31
29 -3 16 -2 31 4 35 16 9 14 58 -1 50 -7 -4 -2 2 12 14 25 20 25 20 5 35 -20
15 -20 15 1 10 14 -4 23 0 27 10 5 12 0 16 -16 17 -12 0 -17 3 -10 5 7 3 9 12
6 20 -3 7 -10 11 -17 7 -6 -3 -7 -2 -3 3 9 9 13 10 43 13 11 1 15 7 11 22 -4
14 -1 19 7 16 8 -3 11 4 8 24 -4 24 -7 27 -18 18 -11 -9 -14 -8 -14 3 0 8 -9
23 -20 33 -11 10 -20 24 -20 32 0 7 -11 19 -25 25 -15 7 -24 17 -21 25 3 7 4
13 3 12 -1 0 -8 -3 -14 -6z m77 -167 c0 -8 -4 -18 -10 -21 -5 -3 -10 3 -10 14
0 12 5 21 10 21 6 0 10 -6 10 -14z m-850 -76 c-8 -5 -19 -10 -25 -10 -5 0 -3
5 5 10 8 5 20 10 25 10 6 0 3 -5 -5 -10z m467 -21 c2 -16 -1 -19 -9 -11 -5 5
-7 15 -4 21 10 15 12 14 13 -10z m17 -32 c-3 -9 -12 -13 -20 -10 -12 4 -11 8
3 18 21 16 26 14 17 -8z m305 0 c-13 -13 -26 -22 -28 -20 -7 5 31 43 42 43 6
0 -1 -10 -14 -23z m-570 -53 c-6 -8 -3 -22 8 -42 17 -30 17 -32 -1 -45 -18
-13 -18 -14 0 -32 11 -10 20 -33 20 -52 1 -18 7 -40 14 -48 18 -22 -3 -18 -30
5 -22 19 -35 24 -52 21 -5 0 -8 12 -8 29 0 19 -7 33 -20 40 -11 6 -20 16 -20
23 0 8 4 7 10 -3 8 -12 10 -12 16 3 3 9 1 24 -5 31 -9 11 -9 16 2 23 8 4 17
17 19 28 2 11 10 19 16 18 14 -3 15 7 3 27 -17 25 1 34 20 9 12 -16 14 -28 8
-35z m-171 14 c-3 -7 -13 -15 -23 -16 -15 -4 -16 -2 -4 12 17 19 32 21 27 4z
m605 -46 c-2 -12 2 -22 9 -22 6 0 0 -9 -13 -21 l-24 -20 -9 20 c-5 12 -13 21
-18 21 -4 0 -8 5 -8 10 0 6 3 9 8 9 23 -4 34 3 28 17 -4 11 -1 14 12 12 11 -3
16 -12 15 -26z m162 9 c-3 -6 -11 -11 -17 -11 -6 0 -6 6 2 15 14 17 26 13 15
-4z m-715 -21 c0 -5 -4 -10 -10 -10 -5 0 -10 5 -10 10 0 6 5 10 10 10 6 0 10
-4 10 -10z m420 -30 c0 -5 -4 -10 -10 -10 -5 0 -10 5 -10 10 0 6 5 10 10 10 6
0 10 -4 10 -10z m-225 -20 c17 -11 24 -20 17 -20 -8 0 -10 -5 -6 -12 5 -8 1
-7 -10 2 -10 8 -25 15 -33 16 -20 3 -26 11 -18 23 9 15 16 14 50 -9z m35 16
c0 -11 -19 -15 -25 -6 -3 5 1 10 9 10 9 0 16 -2 16 -4z m31 -49 c-6 -6 -11 -9
-12 -6 0 2 -2 17 -4 33 -4 29 -4 29 12 7 11 -17 12 -26 4 -34z m116 -10 c10
-13 24 -22 31 -19 12 4 17 -19 6 -30 -9 -10 -44 4 -44 17 0 7 -7 18 -15 25 -8
7 -15 16 -15 21 0 16 18 9 37 -14z m158 13 c3 -5 -3 -10 -14 -10 -12 0 -21 5
-21 10 0 6 6 10 14 10 8 0 18 -4 21 -10z m-311 -36 c20 -20 20 -20 -4 -20 -11
0 -20 4 -20 8 0 4 -10 8 -22 8 -19 0 -20 2 -8 10 21 14 36 12 54 -6z m14 -51
c2 -8 -5 -13 -17 -13 -12 0 -21 6 -21 16 0 18 31 15 38 -3z m-150 -10 c-8 -10
-6 -19 12 -38 13 -14 19 -25 13 -25 -6 0 -21 12 -32 28 -16 21 -20 23 -21 10
0 -22 -23 -23 -40 -3 -7 8 -11 15 -9 16 2 0 12 2 23 4 10 2 23 8 28 13 5 5 15
9 23 9 11 0 12 -4 3 -14z m432 -9 c0 -2 -7 -4 -15 -4 -8 0 -15 4 -15 10 0 5 7
7 15 4 8 -4 15 -8 15 -10z m-5 -24 c-3 -5 -11 -10 -16 -10 -6 0 -7 5 -4 10 3
6 11 10 16 10 6 0 7 -4 4 -10z m-515 -56 c0 -8 -5 -12 -10 -9 -6 4 -8 11 -5
16 9 14 15 11 15 -7z m207 10 c-3 -3 -12 -4 -19 -1 -8 3 -5 6 6 6 11 1 17 -2
13 -5z"/>
<path d="M3896 3203 c-11 -11 -6 -23 9 -23 8 0 15 4 15 9 0 13 -16 22 -24 14z"/>
<path d="M4310 3200 c0 -5 5 -10 11 -10 5 0 7 5 4 10 -3 6 -8 10 -11 10 -2 0
-4 -4 -4 -10z"/>
<path d="M4395 3200 c3 -5 8 -10 11 -10 2 0 4 5 4 10 0 6 -5 10 -11 10 -5 0
-7 -4 -4 -10z"/>
<path d="M4066 3184 c-10 -26 -7 -34 14 -34 23 0 25 8 6 33 -12 16 -14 16 -20
1z"/>
<path d="M4650 3191 c0 -5 5 -13 10 -16 6 -3 10 -2 10 4 0 5 -4 13 -10 16 -5
3 -10 2 -10 -4z"/>
<path d="M4401 3161 c-10 -6 -5 -13 19 -25 39 -19 40 -19 40 -6 0 6 -5 10 -11
10 -7 0 -17 7 -23 15 -7 9 -16 12 -25 6z"/>
<path d="M4687 3149 c-7 -27 -1 -37 14 -22 7 7 8 17 2 28 -9 15 -11 15 -16 -6z"/>
<path d="M4010 3138 c0 -18 18 -34 28 -24 3 4 -2 14 -11 23 -16 16 -17 16 -17
1z"/>
<path d="M4640 3140 c0 -5 5 -10 11 -10 5 0 7 5 4 10 -3 6 -8 10 -11 10 -2 0
-4 -4 -4 -10z"/>
<path d="M4830 3136 c0 -9 5 -16 10 -16 6 0 10 4 10 9 0 6 -4 13 -10 16 -5 3
-10 -1 -10 -9z"/>
<path d="M4177 3095 c-4 -8 -2 -17 3 -20 6 -4 10 3 10 14 0 25 -6 27 -13 6z"/>
<path d="M4806 3092 c-2 -4 4 -8 15 -8 10 0 19 4 19 8 0 4 -6 8 -14 8 -8 0
-17 -4 -20 -8z"/>
<path d="M4127 3063 c-12 -11 -8 -23 8 -23 8 0 15 -5 15 -11 0 -5 4 -7 10 -4
6 4 5 13 -3 25 -13 21 -20 24 -30 13z"/>
<path d="M3926 3041 c-4 -7 -5 -15 -2 -18 9 -9 19 4 14 18 -4 11 -6 11 -12 0z"/>
<path d="M3705 2950 c-3 -5 -1 -10 4 -10 6 0 11 5 11 10 0 6 -2 10 -4 10 -3 0
-8 -4 -11 -10z"/>
<path d="M2810 2890 c0 -15 5 -19 23 -16 12 2 32 0 44 -5 14 -5 25 -4 29 3 9
14 -18 29 -32 17 -8 -6 -14 -5 -18 6 -8 23 -46 19 -46 -5z"/>
<path d="M3756 2781 c-4 -5 1 -8 9 -7 21 3 31 16 12 16 -9 0 -18 -4 -21 -9z"/>
<path d="M4622 2770 c-7 -11 -22 -20 -34 -20 -25 0 -19 -9 9 -15 14 -2 24 4
32 22 14 31 10 39 -7 13z"/>
<path d="M3820 2755 c0 -8 5 -15 10 -15 6 0 10 7 10 15 0 8 -4 15 -10 15 -5 0
-10 -7 -10 -15z"/>
<path d="M3780 2683 c0 -23 15 -39 24 -25 3 5 -1 18 -9 28 -14 18 -14 18 -15
-3z"/>
<path d="M3360 2570 c0 -16 4 -30 9 -30 5 0 9 14 9 30 -1 17 -5 30 -10 30 -4
0 -8 -13 -8 -30z"/>
<path d="M4506 2592 c-3 -6 -1 -14 5 -17 15 -10 25 3 12 16 -7 7 -13 7 -17 1z"/>
<path d="M4281 2504 c0 -11 3 -14 6 -6 3 7 2 16 -1 19 -3 4 -6 -2 -5 -13z"/>
<path d="M3450 2470 c-6 -11 -7 -20 -2 -20 6 0 12 9 15 20 3 11 3 20 1 20 -2
0 -8 -9 -14 -20z"/>
<path d="M4216 2473 c-6 -14 -5 -15 5 -6 7 7 10 15 7 18 -3 3 -9 -2 -12 -12z"/>
<path d="M3395 2470 c-3 -5 -1 -10 4 -10 6 0 11 5 11 10 0 6 -2 10 -4 10 -3 0
-8 -4 -11 -10z"/>
<path d="M4190 2450 c0 -5 5 -10 11 -10 5 0 7 5 4 10 -3 6 -8 10 -11 10 -2 0
-4 -4 -4 -10z"/>
<path d="M4082 2379 c-17 -27 -8 -36 14 -15 10 11 13 21 8 26 -6 6 -15 1 -22
-11z"/>
<path d="M4123 2376 c-13 -13 -23 -29 -23 -35 0 -6 -8 -8 -17 -4 -16 6 -16 5
-4 -11 8 -9 17 -13 20 -8 3 5 14 11 24 15 10 4 16 11 13 16 -3 5 4 11 15 14
12 3 19 11 17 18 -7 21 -22 20 -45 -5z"/>
<path d="M3510 2376 c0 -2 7 -9 15 -16 9 -7 15 -8 15 -2 0 5 -7 12 -15 16 -8
3 -15 4 -15 2z"/>
<path d="M3476 2361 c-4 -5 -2 -12 3 -15 5 -4 12 -2 15 3 4 5 2 12 -3 15 -5 4
-12 2 -15 -3z"/>
<path d="M3735 2360 c-3 -5 -1 -10 4 -10 6 0 11 5 11 10 0 6 -2 10 -4 10 -3 0
-8 -4 -11 -10z"/>
<path d="M3385 2340 c2 -8 4 -17 4 -19 1 -2 7 2 15 8 11 10 16 8 21 -9 7 -22
26 -23 33 -2 2 7 -4 12 -13 12 -11 0 -15 5 -12 15 5 10 -1 14 -22 12 -19 -1
-28 -7 -26 -17z"/>
<path d="M3780 2320 c6 -11 18 -20 27 -20 12 0 13 3 4 13 -6 8 -8 17 -4 20 3
4 -4 7 -16 7 -19 0 -20 -3 -11 -20z"/>
<path d="M3395 2300 c3 -5 8 -10 11 -10 2 0 4 5 4 10 0 6 -5 10 -11 10 -5 0
-7 -4 -4 -10z"/>
<path d="M3540 2295 c0 -18 -46 -21 -53 -2 -2 6 -8 9 -12 5 -15 -14 5 -38 30
-38 15 0 35 -5 46 -10 17 -10 19 -7 19 25 0 24 -4 35 -15 35 -8 0 -15 -7 -15
-15z"/>
<path d="M4040 2279 c0 -5 5 -7 10 -4 6 3 10 8 10 11 0 2 -4 4 -10 4 -5 0 -10
-5 -10 -11z"/>
<path d="M3745 2270 c3 -5 8 -10 11 -10 2 0 4 5 4 10 0 6 -5 10 -11 10 -5 0
-7 -4 -4 -10z"/>
<path d="M3633 2254 c-3 -9 -13 -14 -24 -11 -11 3 -17 1 -13 -4 3 -5 -3 -10
-13 -10 -76 -6 -104 -16 -96 -36 5 -12 2 -15 -10 -10 -9 3 -17 2 -17 -3 0 -13
27 -13 35 0 11 18 105 8 105 -11 0 -6 7 -17 15 -25 11 -11 15 -12 15 -3 0 7 6
4 15 -7 13 -17 14 -17 15 -1 0 9 5 17 11 17 5 0 7 5 4 10 -4 6 5 10 20 10 22
0 25 3 20 20 -4 12 -1 28 6 36 7 8 8 14 3 13 -10 -2 -39 7 -67 22 -13 7 -19 5
-24 -7z m5 -65 c-2 -6 -8 -10 -13 -10 -5 0 -11 4 -13 10 -2 6 4 11 13 11 9 0
15 -5 13 -11z m32 1 c0 -5 -2 -10 -4 -10 -3 0 -8 5 -11 10 -3 6 -1 10 4 10 6
0 11 -4 11 -10z"/>
<path d="M3790 2255 c12 -15 30 -12 30 6 0 5 -10 9 -21 9 -18 0 -19 -2 -9 -15z"/>
<path d="M3475 2241 c-3 -5 -1 -12 5 -16 12 -7 30 2 30 16 0 12 -27 12 -35 0z"/>
<path d="M4047 2243 c-4 -3 -7 -11 -7 -17 0 -6 5 -5 12 2 6 6 9 14 7 17 -3 3
-9 2 -12 -2z"/>
<path d="M3754 2166 c-3 -8 -13 -17 -21 -20 -14 -6 -14 -4 -2 11 13 16 12 17
-3 4 -36 -28 -6 -66 43 -54 22 6 22 4 -6 -18 -37 -29 -45 -40 -38 -52 3 -5 15
5 26 23 18 29 22 30 27 14 5 -14 8 -12 13 13 4 21 12 30 24 29 9 0 19 7 21 17
2 11 -3 17 -16 17 -11 0 -25 7 -32 15 -16 19 -29 19 -36 1z"/>
<path d="M3860 2166 c0 -9 5 -16 10 -16 6 0 10 4 10 9 0 6 -4 13 -10 16 -5 3
-10 -1 -10 -9z"/>
</g>
</svg>
